<svg width="20" height="22" viewBox="0 0 20 22" fill="none" xmlns="http://www.w3.org/2000/svg">
<path d="M19.7626 15.0054C19.8616 15.1773 19.8885 15.3814 19.8374 15.5731C19.7863 15.7648 19.6613 15.9285 19.4897 16.0282L10.4897 21.2782C10.3751 21.3451 10.2447 21.3803 10.1119 21.3803C9.97918 21.3803 9.8488 21.3451 9.73412 21.2782L0.734121 16.0282C0.565084 15.9266 0.442857 15.7626 0.393902 15.5715C0.344948 15.3805 0.373206 15.1779 0.472559 15.0075C0.571912 14.8371 0.734363 14.7128 0.924742 14.6613C1.11512 14.6099 1.3181 14.6355 1.48975 14.7326L10.1147 19.7623L18.7397 14.7326C18.9116 14.6335 19.1158 14.6066 19.3075 14.6577C19.4992 14.7089 19.6628 14.8339 19.7626 15.0054ZM18.7397 10.2326L10.1147 15.2623L1.48975 10.2326C1.31898 10.1475 1.12222 10.1308 0.939532 10.1857C0.756843 10.2406 0.601949 10.3631 0.506377 10.5282C0.410805 10.6933 0.381739 10.8886 0.425094 11.0744C0.468449 11.2602 0.580967 11.4225 0.739746 11.5282L9.73975 16.7782C9.85443 16.8451 9.9848 16.8803 10.1176 16.8803C10.2503 16.8803 10.3807 16.8451 10.4954 16.7782L19.4954 11.5282C19.5818 11.4793 19.6577 11.4137 19.7186 11.3352C19.7795 11.2568 19.8242 11.167 19.8501 11.0711C19.876 10.9752 19.8826 10.8752 19.8695 10.7767C19.8565 10.6783 19.824 10.5834 19.7739 10.4976C19.7239 10.4118 19.6573 10.3368 19.5781 10.2769C19.4988 10.2171 19.4084 10.1736 19.3122 10.1489C19.216 10.1243 19.1159 10.119 19.0176 10.1333C18.9193 10.1477 18.8249 10.1814 18.7397 10.2326ZM0.364746 6.38039C0.365045 6.24903 0.399842 6.12005 0.465653 6.00636C0.531464 5.89267 0.625982 5.79826 0.739746 5.73258L9.73975 0.482576C9.85443 0.4157 9.9848 0.380463 10.1176 0.380463C10.2503 0.380463 10.3807 0.4157 10.4954 0.482576L19.4954 5.73258C19.6086 5.79863 19.7025 5.8932 19.7678 6.00686C19.8331 6.12053 19.8674 6.24931 19.8674 6.38039C19.8674 6.51146 19.8331 6.64025 19.7678 6.75391C19.7025 6.86758 19.6086 6.96215 19.4954 7.0282L10.4954 12.2782C10.3807 12.3451 10.2503 12.3803 10.1176 12.3803C9.9848 12.3803 9.85443 12.3451 9.73975 12.2782L0.739746 7.0282C0.625982 6.96252 0.531464 6.86811 0.465653 6.75442C0.399842 6.64073 0.365045 6.51175 0.364746 6.38039ZM2.6035 6.38039L10.1147 10.7623L17.626 6.38039L10.1147 1.99851L2.6035 6.38039Z" fill="black"/>
</svg>
