<svg width="25" height="19" viewBox="0 0 25 19"  xmlns="http://www.w3.org/2000/svg">
<path d="M23.3577 18.048C23.3577 18.048 24.8577 18.048 24.8577 16.548C24.8577 15.048 23.3577 10.548 17.3577 10.548C11.3577 10.548 9.85767 15.048 9.85767 16.548C9.85767 18.048 11.3577 18.048 11.3577 18.048H23.3577ZM11.3907 16.548C11.3796 16.5465 11.3686 16.5445 11.3577 16.542C11.3592 16.146 11.6082 14.997 12.4977 13.962C13.3257 12.9915 14.7807 12.048 17.3577 12.048C19.9332 12.048 21.3882 12.993 22.2177 13.962C23.1072 14.997 23.3547 16.1475 23.3577 16.542L23.3457 16.545C23.3387 16.5462 23.3317 16.5472 23.3247 16.548H11.3907ZM17.3577 7.54803C18.1533 7.54803 18.9164 7.23196 19.479 6.66936C20.0416 6.10675 20.3577 5.34368 20.3577 4.54803C20.3577 3.75239 20.0416 2.98932 19.479 2.42671C18.9164 1.86411 18.1533 1.54803 17.3577 1.54803C16.562 1.54803 15.799 1.86411 15.2363 2.42671C14.6737 2.98932 14.3577 3.75239 14.3577 4.54803C14.3577 5.34368 14.6737 6.10675 15.2363 6.66936C15.799 7.23196 16.562 7.54803 17.3577 7.54803ZM21.8577 4.54803C21.8577 5.13898 21.7413 5.72414 21.5151 6.27011C21.289 6.81608 20.9575 7.31215 20.5396 7.73001C20.1218 8.14788 19.6257 8.47935 19.0797 8.70549C18.5338 8.93164 17.9486 9.04803 17.3577 9.04803C16.7667 9.04803 16.1816 8.93164 15.6356 8.70549C15.0896 8.47935 14.5935 8.14788 14.1757 7.73001C13.7578 7.31215 13.4264 6.81608 13.2002 6.27011C12.9741 5.72414 12.8577 5.13898 12.8577 4.54803C12.8577 3.35456 13.3318 2.20997 14.1757 1.36605C15.0196 0.522141 16.1642 0.0480347 17.3577 0.0480347C18.5511 0.0480347 19.6957 0.522141 20.5396 1.36605C21.3836 2.20997 21.8577 3.35456 21.8577 4.54803ZM11.2617 10.968C10.6616 10.7791 10.0431 10.6549 9.41667 10.5975C9.06466 10.5641 8.71126 10.5475 8.35767 10.548C2.35767 10.548 0.857666 15.048 0.857666 16.548C0.857666 17.5485 1.35717 18.048 2.35767 18.048H8.68167C8.4593 17.5798 8.3484 17.0663 8.35767 16.548C8.35767 15.033 8.92317 13.485 9.99267 12.192C10.3572 11.751 10.7817 11.3385 11.2617 10.968ZM8.23767 12.048C7.3499 13.3819 6.87033 14.9458 6.85767 16.548H2.35767C2.35767 16.158 2.60367 15.003 3.49767 13.962C4.31517 13.008 5.73567 12.078 8.23767 12.0495V12.048ZM3.10767 5.29803C3.10767 4.10456 3.58177 2.95997 4.42569 2.11605C5.2696 1.27214 6.41419 0.798035 7.60767 0.798035C8.80114 0.798035 9.94573 1.27214 10.7896 2.11605C11.6336 2.95997 12.1077 4.10456 12.1077 5.29803C12.1077 6.49151 11.6336 7.6361 10.7896 8.48001C9.94573 9.32393 8.80114 9.79803 7.60767 9.79803C6.41419 9.79803 5.2696 9.32393 4.42569 8.48001C3.58177 7.6361 3.10767 6.49151 3.10767 5.29803ZM7.60767 2.29803C6.81202 2.29803 6.04895 2.6141 5.48635 3.17671C4.92374 3.73932 4.60767 4.50239 4.60767 5.29803C4.60767 6.09368 4.92374 6.85675 5.48635 7.41936C6.04895 7.98196 6.81202 8.29803 7.60767 8.29803C8.40332 8.29803 9.16638 7.98196 9.72899 7.41936C10.2916 6.85675 10.6077 6.09368 10.6077 5.29803C10.6077 4.50239 10.2916 3.73932 9.72899 3.17671C9.16638 2.6141 8.40332 2.29803 7.60767 2.29803Z" />
</svg>
