<svg width="21" height="17" viewBox="0 0 21 17" fill="none" xmlns="http://www.w3.org/2000/svg">
<path d="M20.1147 2.34241V14.3424C20.1147 14.8924 19.9187 15.3634 19.5267 15.7554C19.1347 16.1474 18.6641 16.3431 18.1147 16.3424H2.11475C1.56475 16.3424 1.09375 16.1464 0.701748 15.7544C0.309748 15.3624 0.114081 14.8917 0.114748 14.3424V2.34241C0.114748 1.79241 0.310748 1.32141 0.702748 0.929409C1.09475 0.537409 1.56541 0.341742 2.11475 0.342409H18.1147C18.6647 0.342409 19.1357 0.538409 19.5277 0.930409C19.9197 1.32241 20.1154 1.79308 20.1147 2.34241ZM2.11475 4.34241H18.1147V2.34241H2.11475V4.34241ZM2.11475 8.34241V14.3424H18.1147V8.34241H2.11475Z" fill="black"/>
</svg>
