<svg width="21" height="17" viewBox="0 0 21 17" fill="none" stroke="black" xmlns="http://www.w3.org/2000/svg">
<path d="M1.11475 4.4184C1.11475 3.62275 1.43082 2.85968 1.99343 2.29708C2.55603 1.73447 3.3191 1.4184 4.11475 1.4184H16.1147C16.9104 1.4184 17.6735 1.73447 18.2361 2.29708C18.7987 2.85968 19.1147 3.62275 19.1147 4.4184V12.4184C19.1147 13.214 18.7987 13.9771 18.2361 14.5397C17.6735 15.1023 16.9104 15.4184 16.1147 15.4184H4.11475C3.3191 15.4184 2.55603 15.1023 1.99343 14.5397C1.43082 13.9771 1.11475 13.214 1.11475 12.4184V4.4184Z" stroke-width="2" stroke-linecap="round" stroke-linejoin="round"/>
<path d="M5.11475 12.4184L8.11475 9.4184M8.11475 9.4184L11.1147 12.4184M8.11475 9.4184C7.69175 7.5884 6.74275 6.3984 5.61475 6.4184C4.82575 6.4184 4.11475 7.0904 4.11475 7.9184C4.11475 8.7464 5.32575 9.4184 6.11475 9.4184H10.1147C10.9037 9.4184 12.1147 8.7464 12.1147 7.9184C12.1147 7.0904 11.4037 6.4184 10.6147 6.4184C9.48675 6.3984 8.53775 7.5884 8.11475 9.4184Z" stroke-width="2" stroke-linecap="round" stroke-linejoin="round"/>
</svg>
