<svg width="22" height="22" viewBox="0 0 22 22" fill="none" xmlns="http://www.w3.org/2000/svg">
<path d="M0.857666 11.252C0.857666 8.96304 0.857666 7.81903 1.37767 6.87103C1.89567 5.92203 2.84467 5.33403 4.74167 4.15603L6.74167 2.91503C8.74667 1.67003 9.74967 1.04803 10.8577 1.04803C11.9657 1.04803 12.9677 1.67003 14.9737 2.91503L16.9737 4.15603C18.8707 5.33403 19.8197 5.92203 20.3387 6.87103C20.8577 7.81903 20.8577 8.96303 20.8577 11.251V12.773C20.8577 16.673 20.8577 18.624 19.6857 19.836C18.5147 21.048 16.6287 21.048 12.8577 21.048H8.85767C5.08667 21.048 3.20067 21.048 2.02967 19.836C0.857666 18.624 0.857666 16.674 0.857666 12.773V11.252Z" stroke="black" stroke-width="1.5"/>
</svg>
