<svg width="20" height="22" viewBox="0 0 20 22" fill="black" xmlns="http://www.w3.org/2000/svg">
<path d="M19.0847 5.00595L10.8347 0.491884C10.6143 0.370086 10.3666 0.306198 10.1147 0.306198C9.8629 0.306198 9.61518 0.370086 9.39475 0.491884L1.14475 5.00782C0.909141 5.13673 0.712468 5.32653 0.575263 5.55741C0.438059 5.78828 0.365356 6.05176 0.364746 6.32032V15.2866C0.365356 15.5551 0.438059 15.8186 0.575263 16.0495C0.712468 16.2804 0.909141 16.4702 1.14475 16.5991L9.39475 21.115C9.61518 21.2368 9.8629 21.3007 10.1147 21.3007C10.3666 21.3007 10.6143 21.2368 10.8347 21.115L19.0847 16.5991C19.3204 16.4702 19.517 16.2804 19.6542 16.0495C19.7914 15.8186 19.8641 15.5551 19.8647 15.2866V6.32126C19.8646 6.05222 19.7922 5.78815 19.6549 5.55674C19.5177 5.32533 19.3208 5.13509 19.0847 5.00595ZM10.1147 1.80438L17.6476 5.92938L14.8557 7.45657L7.32287 3.33157L10.1147 1.80438ZM10.1147 10.0544L2.58193 5.92938L5.761 4.18845L13.2938 8.31345L10.1147 10.0544ZM18.3647 15.2903L10.8647 19.3956V11.3509L13.8647 9.70938V13.0544C13.8647 13.2533 13.9438 13.4441 14.0844 13.5847C14.2251 13.7254 14.4158 13.8044 14.6147 13.8044C14.8137 13.8044 15.0044 13.7254 15.1451 13.5847C15.2857 13.4441 15.3647 13.2533 15.3647 13.0544V8.88813L18.3647 7.24657V15.2866V15.2903Z" />
</svg>
