<svg width="22" height="20" viewBox="0 0 22 20" fill="none" xmlns="http://www.w3.org/2000/svg">
<path d="M8.35767 17.798C8.55658 17.798 8.74734 17.719 8.888 17.5784C9.02865 17.4377 9.10767 17.2469 9.10767 17.048C9.10767 16.8491 9.02865 16.6584 8.888 16.5177C8.74734 16.3771 8.55658 16.298 8.35767 16.298V17.798ZM9.85767 3.04803V3.79803C10.0059 3.7979 10.1508 3.75385 10.274 3.67143C10.3972 3.58901 10.4932 3.47192 10.55 3.33496C10.6067 3.19799 10.6215 3.0473 10.5926 2.9019C10.5637 2.7565 10.4924 2.62292 10.3877 2.51803L9.85767 3.04803ZM8.38767 0.518034C8.24549 0.385554 8.05745 0.313431 7.86314 0.316859C7.66884 0.320287 7.48346 0.398999 7.34604 0.536412C7.20863 0.673825 7.12992 0.85921 7.12649 1.05351C7.12306 1.24781 7.19519 1.43586 7.32767 1.57803L8.38767 0.518034ZM8.35767 16.298H7.85767V17.798H8.35767V16.298ZM7.85767 3.79803H9.85767V2.29803H7.85767V3.79803ZM10.3877 2.51803L8.38767 0.518034L7.32767 1.57803L9.32767 3.57803L10.3877 2.51803ZM0.107666 10.048C0.107666 12.1035 0.924182 14.0747 2.37759 15.5281C3.831 16.9815 5.80224 17.798 7.85767 17.798V16.298C6.20006 16.298 4.61035 15.6396 3.43825 14.4675C2.26615 13.2954 1.60767 11.7056 1.60767 10.048H0.107666ZM1.60767 10.048C1.60767 8.39043 2.26615 6.80072 3.43825 5.62862C4.61035 4.45651 6.20006 3.79803 7.85767 3.79803V2.29803C5.80224 2.29803 3.831 3.11455 2.37759 4.56796C0.924182 6.02136 0.107666 7.99261 0.107666 10.048H1.60767ZM11.8577 17.048V16.298C11.7094 16.2982 11.5645 16.3422 11.4413 16.4246C11.3181 16.5071 11.2221 16.6241 11.1654 16.7611C11.1087 16.8981 11.0938 17.0488 11.1227 17.1942C11.1516 17.3396 11.2229 17.4731 11.3277 17.578L11.8577 17.048ZM13.3277 19.578C13.3963 19.6517 13.4791 19.7108 13.5711 19.7518C13.6631 19.7928 13.7624 19.8148 13.8631 19.8166C13.9638 19.8184 14.0639 19.7999 14.1573 19.7622C14.2507 19.7244 14.3355 19.6683 14.4067 19.5971C14.4779 19.5259 14.5341 19.441 14.5718 19.3476C14.6095 19.2542 14.628 19.1542 14.6263 19.0535C14.6245 18.9528 14.6024 18.8535 14.5614 18.7615C14.5205 18.6695 14.4614 18.5867 14.3877 18.518L13.3277 19.578ZM13.3577 2.29803C13.1588 2.29803 12.968 2.37705 12.8273 2.5177C12.6867 2.65836 12.6077 2.84912 12.6077 3.04803C12.6077 3.24695 12.6867 3.43771 12.8273 3.57836C12.968 3.71902 13.1588 3.79803 13.3577 3.79803V2.29803ZM13.8577 16.298H11.8577V17.798H13.8577V16.298ZM11.3277 17.578L13.3277 19.578L14.3877 18.518L12.3877 16.518L11.3277 17.578ZM13.3577 3.79803H13.8577V2.29803H13.3577V3.79803ZM20.1077 10.048C20.1077 11.7056 19.4492 13.2954 18.2771 14.4675C17.105 15.6396 15.5153 16.298 13.8577 16.298V17.798C15.9131 17.798 17.8843 16.9815 19.3377 15.5281C20.7912 14.0747 21.6077 12.1035 21.6077 10.048H20.1077ZM21.6077 10.048C21.6077 7.99261 20.7912 6.02136 19.3377 4.56796C17.8843 3.11455 15.9131 2.29803 13.8577 2.29803V3.79803C15.5153 3.79803 17.105 4.45651 18.2771 5.62862C19.4492 6.80072 20.1077 8.39043 20.1077 10.048H21.6077Z" fill="black"/>
</svg>
